<svg width="578" height="410" viewBox="0 0 578 410" fill="none" xmlns="http://www.w3.org/2000/svg"><path fill-rule="evenodd" clip-rule="evenodd" d="M393.973 409.053C495.056 409.053 577 327.109 577 226.027 577 124.944 495.056 43 393.973 43c-71.397 0-133.246 40.881-163.415 100.512a118.225 118.225 0 00-19.611-1.63c-15.951 0-31.155 3.18-45.009 8.939C165.349 145.3 160.677 141 155 141h-50c-6.075 0-11 4.925-11 11s4.925 11 11 11h38.774C113.672 184.073 94 218.925 94 258.353c0 22.218 6.246 42.982 17.085 60.647H26c-13.255 0-24 10.745-24 24s10.745 24 24 24h112c6.406 0 12.226-2.51 16.53-6.6 16.728 9.193 35.959 14.425 56.417 14.425 21.056 0 40.813-5.542 57.88-15.242 32.73 30.682 76.744 49.47 125.146 49.47z" fill="#F1F1F1"/><rect x="40" y="270" width="102" height="15" rx="7.5" fill="#F0DAE2"/><rect x="12" y="205" width="176" height="15" rx="7.5" fill="#F0DAE2"/><rect opacity=".8" x="139" y="179" width="49" height="12" rx="6" fill="#fff"/><rect y="255" width="25" height="16" rx="8" fill="#F0DAE2"/><rect opacity=".8" x="142" y="235" width="36" height="13" rx="6.5" fill="#fff"/><rect opacity=".8" x="62" y="326" width="68" height="13" rx="6.5" fill="#fff"/><rect width="24" height="12" rx="6" transform="matrix(1 0 0 -1 70 135)" fill="#F0DAE2"/><rect width="65" height="12" rx="6" transform="matrix(1 0 0 -1 106 167)" fill="#F0DAE2"/><path d="M198 111c0-11.046 8.954-20 20-20h260c11.046 0 20 8.954 20 20v180H198V111z" fill="#B40041"/><g filter="url(#filter0_i)"><path d="M215 112a4 4 0 014-4h258a4 4 0 014 4v164a4 4 0 01-4 4H219a4 4 0 01-4-4V112z" fill="#fff"/></g><path d="M178 291h340c0 11.046-8.954 20-20 20H198c-11.046 0-20-8.954-20-20z" fill="#8E0134"/><path fill-rule="evenodd" clip-rule="evenodd" d="M194 291a3 3 0 013-3h14a3 3 0 013 3h-20zm24 0a3 3 0 013-3h14a3 3 0 013 3h-20zm27-3a3 3 0 00-3 3h20a3 3 0 00-3-3h-14zm21 3a3 3 0 013-3h14a3 3 0 013 3h-20zm27-3a3 3 0 00-3 3h20a3 3 0 00-3-3h-14zm21 3a3 3 0 013-3h14a3 3 0 013 3h-20zm27-3a3 3 0 00-3 3h20a3 3 0 00-3-3h-14zm21 3a3 3 0 013-3h14a3 3 0 013 3h-20zm27-3a3 3 0 00-3 3h20a3 3 0 00-3-3h-14zm21 3a3 3 0 013-3h14a3 3 0 013 3h-20zm27-3a3 3 0 00-3 3h20a3 3 0 00-3-3h-14zm21 3a3 3 0 013-3h14a3 3 0 013 3h-20zm27-3a3 3 0 00-3 3h20a3 3 0 00-3-3h-14z" fill="#000"/><path d="M240.016 138.32h-4.848v-3.312h13.44v3.312h-4.848V152h-3.744v-13.68zM259.082 152h-3.456v-1.584h-.048a3.68 3.68 0 01-.504.672 2.993 2.993 0 01-.72.6c-.288.176-.616.32-.984.432a4.104 4.104 0 01-1.2.168c-.912 0-1.656-.136-2.232-.408-.56-.288-1-.68-1.32-1.176-.304-.496-.512-1.08-.624-1.752-.096-.672-.144-1.4-.144-2.184v-6.432h3.6v5.712c0 .336.008.688.024 1.056.032.352.104.68.216.984.128.304.312.552.552.744.256.192.616.288 1.08.288.464 0 .84-.08 1.128-.24.288-.176.504-.4.648-.672.16-.288.264-.608.312-.96a8.17 8.17 0 00.072-1.104v-5.808h3.6V152zm2.549-11.664h3.6v1.872h.048c.384-.72.84-1.256 1.368-1.608.528-.368 1.192-.552 1.992-.552.208 0 .416.008.624.024.208.016.4.048.576.096v3.288a4.402 4.402 0 00-.768-.168 3.913 3.913 0 00-.768-.072c-.688 0-1.232.096-1.632.288a2.22 2.22 0 00-.936.816c-.208.336-.344.744-.408 1.224s-.096 1.008-.096 1.584V152h-3.6v-11.664zm10.11-6.48h3.6v7.728h.048c.416-.56.944-.952 1.584-1.176a6.1 6.1 0 012.112-.36c.832 0 1.576.176 2.232.528a4.903 4.903 0 011.656 1.368c.464.576.816 1.24 1.056 1.992.256.736.384 1.512.384 2.328 0 .88-.136 1.688-.408 2.424a5.598 5.598 0 01-1.176 1.92 5.34 5.34 0 01-1.8 1.248c-.704.288-1.488.432-2.352.432-.416 0-.808-.056-1.176-.168a5.392 5.392 0 01-1.032-.432 5.283 5.283 0 01-.816-.576 4.775 4.775 0 01-.552-.648h-.048V152h-3.312v-18.144zm3.312 12.312c0 .88.248 1.592.744 2.136.512.544 1.224.816 2.136.816.912 0 1.616-.272 2.112-.816.512-.544.768-1.256.768-2.136 0-.88-.256-1.592-.768-2.136-.496-.544-1.2-.816-2.112-.816-.912 0-1.624.272-2.136.816-.496.544-.744 1.256-.744 2.136zm11.037 0c0-.928.168-1.768.504-2.52a5.753 5.753 0 011.368-1.92 6.15 6.15 0 012.064-1.248 7.453 7.453 0 012.544-.432c.896 0 1.736.144 2.52.432a5.85 5.85 0 012.064 1.248 5.597 5.597 0 011.392 1.92c.336.752.504 1.592.504 2.52 0 .928-.168 1.768-.504 2.52a5.85 5.85 0 01-1.392 1.944 6.043 6.043 0 01-2.064 1.224 7.251 7.251 0 01-2.52.432 7.453 7.453 0 01-2.544-.432 6.362 6.362 0 01-2.064-1.224 6.02 6.02 0 01-1.368-1.944c-.336-.752-.504-1.592-.504-2.52zm3.6 0c0 .88.248 1.592.744 2.136.512.544 1.224.816 2.136.816.912 0 1.616-.272 2.112-.816.512-.544.768-1.256.768-2.136 0-.88-.256-1.592-.768-2.136-.496-.544-1.2-.816-2.112-.816-.912 0-1.624.272-2.136.816-.496.544-.744 1.256-.744 2.136zm15.224-7.848h-4.848v-3.312h13.44v3.312h-4.848V152h-3.744v-13.68zm18.406 11.664a5.744 5.744 0 01-2.184 1.704c-.88.4-1.792.6-2.736.6a7.453 7.453 0 01-2.544-.432 6.362 6.362 0 01-2.064-1.224 6.02 6.02 0 01-1.368-1.944c-.336-.752-.504-1.592-.504-2.52 0-.928.168-1.768.504-2.52a5.753 5.753 0 011.368-1.92 6.15 6.15 0 012.064-1.248 7.453 7.453 0 012.544-.432c.832 0 1.584.144 2.256.432a4.535 4.535 0 011.728 1.248c.48.528.848 1.168 1.104 1.92.256.752.384 1.592.384 2.52v1.128h-8.352c.144.688.456 1.24.936 1.656.48.4 1.072.6 1.776.6.592 0 1.088-.128 1.488-.384a4.132 4.132 0 001.08-1.032l2.52 1.848zm-3.048-5.136a2.084 2.084 0 00-.6-1.56c-.416-.432-.952-.648-1.608-.648-.4 0-.752.064-1.056.192a2.68 2.68 0 00-.792.504 2.224 2.224 0 00-.504.696 2.343 2.343 0 00-.192.816h4.752zm8.933.912l-3.888-5.424h4.248l2.064 3.168 1.992-3.168h4.008l-3.792 5.424 4.488 6.24h-4.248l-2.544-3.888-2.736 3.888h-4.2l4.608-6.24zm18.136-2.544h-3.168v3.888c0 .32.016.616.048.888.032.256.104.48.216.672.112.192.28.344.504.456.24.096.552.144.936.144a7.4 7.4 0 00.744-.048c.32-.048.56-.144.72-.288v3c-.4.144-.816.24-1.248.288-.432.048-.856.072-1.272.072a6.92 6.92 0 01-1.68-.192 3.963 3.963 0 01-1.344-.6 3.076 3.076 0 01-.912-1.104c-.208-.448-.312-.992-.312-1.632v-5.544h-2.304v-2.88h2.304v-3.456h3.6v3.456h3.168v2.88z" fill="#8E0134"/><g filter="url(#filter1_d)"><path fill-rule="evenodd" clip-rule="evenodd" d="M235 171h226v10H235v-10zm0 20h226v10H235v-10zm226 40H235v10h226v-10zm-226-20h226v10H235v-10zm226 40H235v10h226v-10z" fill="#C3DCFF"/></g><g filter="url(#filter2_d)"><path fill-rule="evenodd" clip-rule="evenodd" d="M335.49 4h15.815v79.951H335.49V4zm15.815 0h85.066c12.702 0 23 10.297 23 23v250.241h-85.066c-12.703 0-23-10.298-23-23V4zm124.759 193.289h-16.693v79.952h16.693v-79.952z" fill="#E3EFFF"/><path fill="#C3DCFF" d="M326.704 10.15h18.45v87.859h-18.45z"/><path fill-rule="evenodd" clip-rule="evenodd" d="M335.49 4c-8.734 0-15.814 7.08-15.814 15.815V84.83h7.028V19.815a8.786 8.786 0 0117.572 0v88.737h7.029V19.815C351.305 11.08 344.224 4 335.49 4z" fill="#fff"/><path fill="#C3DCFF" d="M483.971 271.091h-18.45v-87.859h18.45z"/><path fill-rule="evenodd" clip-rule="evenodd" d="M475.185 277.241c8.735 0 15.815-7.081 15.815-15.815v-65.015h-7.029v65.015a8.786 8.786 0 11-17.571 0v-88.737H491h-31.629v88.737c0 8.734 7.08 15.815 15.814 15.815z" fill="#fff"/><g filter="url(#filter3_i)"><rect x="362.304" y="39.143" width="87.77" height="93.13" rx="3" fill="#C3DCFF"/></g><path fill-rule="evenodd" clip-rule="evenodd" d="M366.241 149.717h83.466v4.393h-83.466v-4.393zm-.001 8.786h26.358v26.358H366.24v-26.358zm83.466 17.572h-52.715v4.393h52.715v-4.393zm-83.466 13.179h83.466v4.393H366.24v-4.393zm83.466 8.786H366.24v4.393h83.466v-4.393zm-83.466 8.786h83.466v4.392H366.24v-4.392zM449.706 216H366.24v4.393h83.466V216zm-83.466 9.174h83.466v4.393H366.24v-4.393zm83.466 9.175H366.24v4.393h83.466v-4.393zm-83.466 9.174h83.466v4.393H366.24v-4.393zm83.466 9.174H366.24v4.393h83.466v-4.393zm-52.715-85.408h52.715v4.393h-52.715v-4.393zm52.715-8.786h-52.715v4.393h52.715v-4.393z" fill="#A1C7FD"/></g><g filter="url(#filter4_d)"><path fill-rule="evenodd" clip-rule="evenodd" d="M420.713 307.113v-29.872h-21.965v19.872c0 4.158 2.539 7.724 6.151 9.232v12.189h2.635V307.04c.398.048.803.073 1.214.073h11.965z" fill="#F9BA5D"/><g filter="url(#filter5_d)"><path fill-rule="evenodd" clip-rule="evenodd" d="M449.707 301.113v-62.53c-8.735 0-15.815 7.08-15.815 15.814v19.329c-14.557 0-26.358 11.801-26.358 26.358v18.45h26.358v-11.421h9.815a6 6 0 006-6z" fill="#FFCC80"/></g><path fill="#fff" d="M437.406 318.534v19.329h-36.901v-19.329z"/><path fill="#B40041" d="M438 338v58h-38v-58z"/><circle cx="431.257" cy="328.199" r="1.757" transform="rotate(90 431.257 328.199)" fill="#C4C4C4"/></g><g filter="url(#filter6_d)"><path d="M420.387 91.202c-.228 1.782-.731 3.336-1.508 4.66-.731 1.326-1.645 2.446-2.742 3.36a11.32 11.32 0 01-3.702 2.056c-1.325.457-2.741.686-4.25.686-2.147 0-4.067-.366-5.758-1.097-1.69-.777-3.13-1.828-4.318-3.153-1.143-1.326-2.034-2.88-2.674-4.662-.594-1.782-.891-3.701-.891-5.758 0-2.102.297-4.021.891-5.758.595-1.782 1.44-3.313 2.537-4.593 1.142-1.279 2.559-2.261 4.25-2.947 1.691-.731 3.633-1.097 5.826-1.097 1.554 0 3.017.206 4.387.617a10.998 10.998 0 013.702 1.92c1.097.822 2.011 1.873 2.742 3.153.731 1.28 1.234 2.764 1.508 4.455h-6.443c-.32-1.462-.983-2.49-1.988-3.084-1.006-.594-2.125-.891-3.359-.891-2.239 0-3.907.73-5.004 2.193-1.097 1.463-1.645 3.427-1.645 5.895 0 2.56.571 4.639 1.713 6.238 1.188 1.6 2.788 2.4 4.799 2.4 1.462 0 2.719-.343 3.77-1.029 1.051-.685 1.622-1.874 1.714-3.564h6.443zM382 87.5c0-3.519.663-6.81 1.988-9.871 1.371-3.108 3.199-5.804 5.484-8.089a25.854 25.854 0 018.088-5.484c3.108-1.37 6.421-2.056 9.94-2.056 3.519 0 6.809.685 9.871 2.056 3.107 1.326 5.804 3.154 8.089 5.484 2.33 2.285 4.158 4.981 5.484 8.089C432.315 80.691 433 83.981 433 87.5s-.685 6.832-2.056 9.94a25.873 25.873 0 01-5.484 8.088c-2.285 2.285-4.982 4.113-8.089 5.484-3.062 1.325-6.352 1.988-9.871 1.988s-6.832-.663-9.94-1.988c-3.061-1.371-5.758-3.199-8.088-5.484-2.285-2.33-4.113-5.027-5.484-8.089C382.663 94.332 382 91.02 382 87.5zm6.992 0c0 2.65.48 5.164 1.439 7.54.96 2.331 2.285 4.365 3.976 6.101a20.029 20.029 0 005.895 4.182c2.24 1.005 4.639 1.508 7.198 1.508s4.958-.503 7.198-1.508a20.029 20.029 0 005.895-4.182c1.691-1.736 3.016-3.77 3.976-6.1.959-2.377 1.439-4.89 1.439-7.541 0-2.65-.48-5.141-1.439-7.472-.96-2.376-2.285-4.433-3.976-6.17a19.028 19.028 0 00-5.895-4.112c-2.24-1.051-4.639-1.577-7.198-1.577s-4.958.526-7.198 1.577a19.028 19.028 0 00-5.895 4.113c-1.691 1.736-3.016 3.793-3.976 6.17-.959 2.33-1.439 4.82-1.439 7.471z" fill="#A1C7FD"/></g><mask id="a" maskUnits="userSpaceOnUse" x="94" y="43" width="484" height="367"><path fill-rule="evenodd" clip-rule="evenodd" d="M394.027 409.053c101.082 0 183.026-81.944 183.026-183.026C577.053 124.944 495.109 43 394.027 43c-71.401 0-133.252 40.885-163.42 100.521a118.153 118.153 0 00-19.66-1.639C146.359 141.882 94 194.028 94 258.353c0 64.326 52.359 116.472 116.947 116.472 21.07 0 40.839-5.55 57.913-15.261 32.732 30.693 76.754 49.489 125.167 49.489z" fill="#F1F1F1"/></mask><g mask="url(#a)"><path d="M602.5 426L572 139c-12.941 234.191-140.11 264.899-353.5 277l384 10z" fill="#E8E7E7"/></g><defs><filter id="filter0_i" x="215" y="108" width="268" height="174" filterUnits="userSpaceOnUse" color-interpolation-filters="sRGB"><feFlood flood-opacity="0" result="BackgroundImageFix"/><feBlend in="SourceGraphic" in2="BackgroundImageFix" result="shape"/><feColorMatrix in="SourceAlpha" values="0 0 0 0 0 0 0 0 0 0 0 0 0 0 0 0 0 0 127 0" result="hardAlpha"/><feOffset dx="2" dy="2"/><feGaussianBlur stdDeviation="1"/><feComposite in2="hardAlpha" operator="arithmetic" k2="-1" k3="1"/><feColorMatrix values="0 0 0 0 0 0 0 0 0 0 0 0 0 0 0 0 0 0 0.25 0"/><feBlend in2="shape" result="effect1_innerShadow"/></filter><filter id="filter1_d" x="233" y="171" width="230" height="94" filterUnits="userSpaceOnUse" color-interpolation-filters="sRGB"><feFlood flood-opacity="0" result="BackgroundImageFix"/><feColorMatrix in="SourceAlpha" values="0 0 0 0 0 0 0 0 0 0 0 0 0 0 0 0 0 0 127 0"/><feOffset dy="2"/><feGaussianBlur stdDeviation="1"/><feColorMatrix values="0 0 0 0 0 0 0 0 0 0 0 0 0 0 0 0 0 0 0.15 0"/><feBlend in2="BackgroundImageFix" result="effect1_dropShadow"/><feBlend in="SourceGraphic" in2="effect1_dropShadow" result="shape"/></filter><filter id="filter2_d" x="309.676" y="0" width="187.324" height="289.241" filterUnits="userSpaceOnUse" color-interpolation-filters="sRGB"><feFlood flood-opacity="0" result="BackgroundImageFix"/><feColorMatrix in="SourceAlpha" values="0 0 0 0 0 0 0 0 0 0 0 0 0 0 0 0 0 0 127 0"/><feOffset dx="-2" dy="4"/><feGaussianBlur stdDeviation="4"/><feColorMatrix values="0 0 0 0 0 0 0 0 0 0 0 0 0 0 0 0 0 0 0.1 0"/><feBlend in2="BackgroundImageFix" result="effect1_dropShadow"/><feBlend in="SourceGraphic" in2="effect1_dropShadow" result="shape"/></filter><filter id="filter3_i" x="362.304" y="39.143" width="87.77" height="93.13" filterUnits="userSpaceOnUse" color-interpolation-filters="sRGB"><feFlood flood-opacity="0" result="BackgroundImageFix"/><feBlend in="SourceGraphic" in2="BackgroundImageFix" result="shape"/><feColorMatrix in="SourceAlpha" values="0 0 0 0 0 0 0 0 0 0 0 0 0 0 0 0 0 0 127 0" result="hardAlpha"/><feOffset/><feGaussianBlur stdDeviation="2"/><feComposite in2="hardAlpha" operator="arithmetic" k2="-1" k3="1"/><feColorMatrix values="0 0 0 0 0.6 0 0 0 0 0.761446 0 0 0 0 1 0 0 0 1 0"/><feBlend in2="shape" result="effect1_innerShadow"/></filter><filter id="filter4_d" x="392.749" y="238.583" width="58.958" height="165.417" filterUnits="userSpaceOnUse" color-interpolation-filters="sRGB"><feFlood flood-opacity="0" result="BackgroundImageFix"/><feColorMatrix in="SourceAlpha" values="0 0 0 0 0 0 0 0 0 0 0 0 0 0 0 0 0 0 127 0"/><feOffset dx="-2" dy="4"/><feGaussianBlur stdDeviation="2"/><feColorMatrix values="0 0 0 0 0 0 0 0 0 0 0 0 0 0 0 0 0 0 0.15 0"/><feBlend in2="BackgroundImageFix" result="effect1_dropShadow"/><feBlend in="SourceGraphic" in2="effect1_dropShadow" result="shape"/></filter><filter id="filter5_d" x="403.534" y="238.583" width="50.172" height="87.951" filterUnits="userSpaceOnUse" color-interpolation-filters="sRGB"><feFlood flood-opacity="0" result="BackgroundImageFix"/><feColorMatrix in="SourceAlpha" values="0 0 0 0 0 0 0 0 0 0 0 0 0 0 0 0 0 0 127 0"/><feOffset dy="4"/><feGaussianBlur stdDeviation="2"/><feColorMatrix values="0 0 0 0 0 0 0 0 0 0 0 0 0 0 0 0 0 0 0.15 0"/><feBlend in2="BackgroundImageFix" result="effect1_dropShadow"/><feBlend in="SourceGraphic" in2="effect1_dropShadow" result="shape"/></filter><filter id="filter6_d" x="380" y="62" width="55" height="55" filterUnits="userSpaceOnUse" color-interpolation-filters="sRGB"><feFlood flood-opacity="0" result="BackgroundImageFix"/><feColorMatrix in="SourceAlpha" values="0 0 0 0 0 0 0 0 0 0 0 0 0 0 0 0 0 0 127 0"/><feOffset dy="2"/><feGaussianBlur stdDeviation="1"/><feColorMatrix values="0 0 0 0 0 0 0 0 0 0 0 0 0 0 0 0 0 0 0.15 0"/><feBlend in2="BackgroundImageFix" result="effect1_dropShadow"/><feBlend in="SourceGraphic" in2="effect1_dropShadow" result="shape"/></filter></defs></svg>
